<?xml version="1.0" encoding="UTF-8" standalone="no"?>
<!-- Created with Inkscape (http://www.inkscape.org/) -->

<svg
   xmlns:dc="http://purl.org/dc/elements/1.1/"
   xmlns:cc="http://creativecommons.org/ns#"
   xmlns:rdf="http://www.w3.org/1999/02/22-rdf-syntax-ns#"
   xmlns:svg="http://www.w3.org/2000/svg"
   xmlns="http://www.w3.org/2000/svg"
   xmlns:sodipodi="http://sodipodi.sourceforge.net/DTD/sodipodi-0.dtd"
   xmlns:inkscape="http://www.inkscape.org/namespaces/inkscape"
   width="144"
   height="144"
   viewBox="0 0 38.099999 38.1"
   version="1.1"
   id="svg8"
   inkscape:version="0.92.4 (5da689c313, 2019-01-14)"
   sodipodi:docname="tomato.svg"
   inkscape:export-filename="C:\Users\evodo\tomato.png"
   inkscape:export-xdpi="96"
   inkscape:export-ydpi="96">
  <defs
     id="defs2" />
  <sodipodi:namedview
     id="base"
     pagecolor="#ffffff"
     bordercolor="#666666"
     borderopacity="1.0"
     inkscape:pageopacity="0.0"
     inkscape:pageshadow="2"
     inkscape:zoom="2.8"
     inkscape:cx="7.2821859"
     inkscape:cy="35.750456"
     inkscape:document-units="mm"
     inkscape:current-layer="layer1"
     showgrid="false"
     inkscape:window-width="1920"
     inkscape:window-height="1017"
     inkscape:window-x="1358"
     inkscape:window-y="-8"
     inkscape:window-maximized="1"
     fit-margin-top="0"
     fit-margin-left="0"
     fit-margin-right="0"
     fit-margin-bottom="0"
     units="px" />
  <metadata
     id="metadata5">
    <rdf:RDF>
      <cc:Work
         rdf:about="">
        <dc:format>image/svg+xml</dc:format>
        <dc:type
           rdf:resource="http://purl.org/dc/dcmitype/StillImage" />
        <dc:title></dc:title>
      </cc:Work>
    </rdf:RDF>
  </metadata>
  <g
     inkscape:label="Calque 1"
     inkscape:groupmode="layer"
     id="layer1"
     transform="translate(-178.25037,-225.83142)">
    <path
       style="fill:#ff3d00;fill-opacity:1;stroke:none;stroke-width:0.50421464px;stroke-linecap:butt;stroke-linejoin:miter;stroke-opacity:1"
       d="m 195.47545,233.20306 c 0,0 -5.348,-0.764 -9.168,0.76401 -3.82,1.52798 -6.87601,4.32933 -7.64002,8.14933 -0.76401,3.82 -0.89133,11.20535 3.31068,15.02535 4.20202,3.82 9.67734,5.60266 12.47867,5.98467 2.80133,0.38202 6.23934,0.89135 9.42268,-0.1273 3.18335,-1.01865 8.78601,-4.07466 10.05934,-6.62133 1.27332,-2.54667 3.438,-9.16802 1.78266,-13.87935 -1.65534,-4.71133 -6.62133,-7.76734 -8.022,-8.40401 -1.40066,-0.63666 -11.20534,0.1273 -11.20534,0.1273 z"
       id="path3724"
       inkscape:connector-curvature="0"
       sodipodi:nodetypes="cczzzzzzccc" />
    <path
       style="fill:#dd2c00;fill-opacity:1;stroke:none;stroke-width:0.50421464px;stroke-linecap:butt;stroke-linejoin:miter;stroke-opacity:1"
       d="m 213.54782,238.83815 c -0.61824,-0.75406 -1.26599,-1.48139 -1.93313,-2.07004 -0.81177,-0.71625 -1.61506,-1.30526 -2.30345,-1.75491 -0.68839,-0.44965 -1.26193,-0.75965 -1.6121,-0.91881 -0.35017,-0.15913 -1.22569,-0.23124 -2.34185,-0.24915 -1.11615,-0.0171 -2.47241,0.019 -3.78555,0.0739 -2.62625,0.11148 -5.07758,0.30232 -5.07758,0.30232 l -1.01829,-1.01827 c 0,0 -1.33782,-0.19105 -3.15232,-0.19105 -0.90725,0 -1.93356,0.0478 -2.97212,0.19105 -1.03855,0.14331 -2.08898,0.3822 -3.044,0.7642 -0.95498,0.382 -1.8627,0.8435 -2.69833,1.38067 -0.83563,0.5372 -1.59949,1.15026 -2.26799,1.83469 -0.52915,0.54175 -0.94364,1.16278 -1.34128,1.79231 2.11359,1.25331 6.07444,3.5236 7.836,3.5236 2.292,0 5.9846,-1.40137 5.9846,-1.40137 0,0 0.7638,3.18375 1.78247,4.07508 1.01867,0.89133 4.32917,2.92878 4.32917,2.92878 0,0 1.91049,-3.43771 1.91049,-3.94705 0,-0.50933 0.76321,-2.6747 0.76321,-2.6747 0,0 1.27358,1.01886 3.3109,0.76421 2.03734,-0.25468 3.31106,-0.89093 5.3484,-2.29164 0.95228,-0.65468 1.71633,-0.95772 2.28275,-1.11378 z"
       id="path3732"
       inkscape:connector-curvature="0" />
    <path
       style="fill:#4caf50;fill-opacity:1;stroke:none;stroke-width:0.50421464px;stroke-linecap:butt;stroke-linejoin:miter;stroke-opacity:1"
       d="m 195.02978,234.09439 c 0,0 -2.73768,0.1273 -3.88366,1.01867 -1.14601,0.89135 -2.865,2.865 -3.69269,3.24701 -0.82766,0.382 -1.97366,0.63666 -1.97366,0.63666 0,0 3.31068,2.16467 5.34802,1.33699 2.03732,-0.82766 3.50165,-1.71899 4.20199,-2.99232 0.70033,-1.27334 1.14601,-2.10101 1.14601,-2.10101 0,0 -0.1273,1.84634 -0.31834,2.41934 -0.19101,0.573 -0.57301,3.56534 0.63667,4.90234 1.20966,1.33699 2.61032,2.73766 2.61032,2.73766 0,0 1.01867,-2.16466 1.08234,-3.438 0.0636,-1.27333 -0.25466,-3.247 -0.63665,-3.94732 -0.38202,-0.70035 -1.08234,-2.61035 -1.08234,-2.61035 0,0 1.78266,2.48301 3.05601,3.43801 1.27332,0.955 3.82,2.10101 5.28433,1.59165 1.46434,-0.50931 2.10099,-0.63665 2.10099,-0.63665 0,0 -1.528,-0.82768 -2.35567,-1.84633 -0.82766,-1.01867 -1.33699,-1.97367 -2.483,-2.22835 -1.14599,-0.25466 -2.16466,-0.82766 -2.16466,-0.82766 0,0 2.73766,0.44566 3.94734,-0.1273 1.20966,-0.573 2.35567,-1.59165 2.92867,-2.54667 0.57299,-0.955 0.44567,-0.89133 0.44567,-0.89133 0,0 -1.01867,0.76401 -2.16468,0.63667 -1.14601,-0.1273 -3.05601,-1.01867 -4.202,-0.76399 -1.14601,0.25465 -3.31066,1.27332 -3.50167,1.78266 -0.19101,0.50933 -0.31833,-0.955 -0.19101,-1.52801 0.1273,-0.573 1.27335,-2.99233 1.97367,-3.56534 0.70034,-0.573 0.76401,-1.52798 0.76401,-1.52798 l -1.528,-0.0636 c 0,0 -2.38909,2.68523 -2.73766,3.75633 -0.34857,1.07107 -0.82768,3.05601 -0.82768,3.05601 0,0 -1.84633,-2.41934 -3.56533,-2.67402 -1.71901,-0.25465 -2.80055,0.18162 -3.85344,-0.19133 -1.0529,-0.3729 -2.13123,-1.846 -2.13123,-1.846 0,0 -0.44567,1.91 0.44566,2.865 0.89133,0.955 1.52801,1.78268 2.99234,1.97366 1.46433,0.19101 2.61032,0.19101 3.56532,0.50934 0.955,0.31835 0.76401,0.44566 0.76401,0.44566 z"
       id="path3734"
       inkscape:connector-curvature="0"
       sodipodi:nodetypes="ccccccccccccccccccccccccszccczcczcscccc" />
  </g>
</svg>
